<svg id="OBJECTS" xmlns="http://www.w3.org/2000/svg" viewBox="0 0 750 500"><defs><style>.cls-1{fill:#b39ed7;}.cls-2{isolation:isolate;}.cls-3{fill:#fff;}.cls-4{fill:#433b93;}.cls-5{fill:#1f1d5e;}.cls-6{fill:#312f70;}.cls-7{fill:#10162b;}.cls-8{fill:#1b223f;}.cls-9{fill:#3eb3db;}.cls-10{fill:#c9c9c9;}.cls-11{fill:#b5b5b5;}.cls-12{fill:#5c4eaf;}.cls-13{fill:#60c3ef;}.cls-14{fill:#e0a773;}.cls-15{fill:none;}</style></defs><path class="cls-1" d="M257.25,311.21c0,.61.05,1.44.1,2.05A27.91,27.91,0,0,0,258,317a22.24,22.24,0,0,0,1.11,3.25c.2.44.48,1,.72,1.44a12.07,12.07,0,0,0,.89,1.38,14,14,0,0,0,2.35,2.57,17.3,17.3,0,0,0,1.49,1.14c.48.33,1,.65,1.3.82l.12.07.41.24a15.85,15.85,0,0,0,7.29,2.35,13.39,13.39,0,0,0,2.1,0c.38,0,.81-.09,1.23-.16.73-.11,1.49-.24,2.1-.39a26.38,26.38,0,0,0,5.45-2.15l.26-.13.13-.07a.37.37,0,0,0,.12-.07s0,0,0,0h0l.6-.33c5.25-3,10.48-6.07,15.74-9.1a2,2,0,0,0,.25-.14l.38-.23,0,0,.6-.35q21.87-12.64,43.76-25.27c.08,0,.61-.32.62-.34l.26-.13.38-.23,1.57-.9,1.58-.9,1.57-.92,1.58-.9,1.57-.91,1.57-.92,1.58-.9,1.57-.92,1.58-.9,1.57-.9.25-.16a3.64,3.64,0,0,0,.39-.23l0,0s0,0,0,0l.58-.36s0,0,0,0,0,0,0,0c.21-.14.42-.29.65-.43s.42-.3.65-.44a45.11,45.11,0,0,0,6.58-5.69c.2-.21.4-.43.58-.64.81-.86,1.62-1.78,2.42-2.76a4.55,4.55,0,0,0,.36-.47,1.89,1.89,0,0,1,.23-.28c1.3-1.67,2.16-2.95,2.16-3a2,2,0,0,0,.16-.24v0c.18-.24.36-.5.5-.7l.3-.49v0l.32-.47c.69-1.11,1.2-2,1.21-2,.41-.72,1.49-2.63,2.46-4.73.19-.4.33-.73.45-1a.46.46,0,0,1,.07-.16c.36-.77.56-1.29,1-2.46.19-.49.31-.81.56-1.56.07-.17.13-.36.19-.53s.08-.24.13-.37.21-.63.46-1.5c.1-.3.19-.62.28-1,.18-.65.26-.92.38-1.48,0-.1.05-.21.07-.33a5.84,5.84,0,0,0,.16-.66s.26-1.11.47-2.45c.08-.53.12-.73.16-1.2a.88.88,0,0,1,0-.21.31.31,0,0,1,0-.09c0-.23.07-.52.11-.92.09-.82.18-2.38.17-3.56,0-.35,0-.68,0-1a24,24,0,0,0-1.05-6.59,18.66,18.66,0,0,0-1.33-3.17,14.31,14.31,0,0,0-1.58-2.36,17.36,17.36,0,0,0-4.71-3.88l-.41-.24c-.24-.14-.48-.27-.73-.39a16.83,16.83,0,0,0-3.53-1.46c-1-.28-1.83-.37-1.85-.39-.32,0-.75-.09-1.05-.1a13.2,13.2,0,0,0-1.4,0,29.86,29.86,0,0,0-3.39.41,16.1,16.1,0,0,0-1.78.47,38.64,38.64,0,0,0-3.68,1.47c-.59.27-1.33.71-1.9,1l-4.47,2.58c-.1-.74-.24-1.5-.38-2.12a12.17,12.17,0,0,0-.5-1.72,21.13,21.13,0,0,0-1.05-2.51,15.54,15.54,0,0,0-2.44-3.47c-.39-.39-.52-.52-.81-.78a11.27,11.27,0,0,0-1-.83,17.2,17.2,0,0,0-2.14-1.43l-.41-.24-.73-.4a16.51,16.51,0,0,0-3.63-1.46,14.86,14.86,0,0,0-4.28-.52,32,32,0,0,0-3.39.42,17,17,0,0,0-1.77.47,37.61,37.61,0,0,0-3.68,1.47c-.57.26-1.3.69-1.85,1h0l-1.58.91-1.57.91-1.58.91-1.57.9-1.58.92-1.57.9-1.58.91-1.57.91-1.57.91-1.58.92a37.82,37.82,0,0,0-5,3.43,47.37,47.37,0,0,0-4.61,4.33,55.87,55.87,0,0,0-4.19,5,62.11,62.11,0,0,0-3.64,5.57,57.92,57.92,0,0,0-5.27,12.07,47.77,47.77,0,0,0-1.43,6.12c-.13.86-.13.86-.31,2.42,0,.36-.06.84-.09,1.19,0,.61-.07,1-.08,2.35l-4.87,2.82c-1.35.78-2.56,1.61-3,1.94-1.27.94-1.27.94-1.94,1.49-1.07.87-1.89,1.63-1.89,1.63-1,.89-1.13,1.05-1.84,1.77-.89.89-1.5,1.6-1.76,1.89-1.74,1.94-3.06,3.73-3.31,4.08-.42.57-1.05,1.45-1.53,2.17-.21.34-.52.78-.73,1.11s-.5.8-.71,1.15-.46.79-.68,1.14c0,0-.95,1.65-1.88,3.53-.79,1.61-1.51,3.25-2.12,4.84-.94,2.48-1.47,4.4-1.62,4.94a48.36,48.36,0,0,0-1.08,4.9c-.06.41-.19,1.26-.3,2.43-.08.81-.08.81-.16,2.38C257.23,310,257.23,310.71,257.25,311.21Z"/><g class="cls-2"><path class="cls-3" d="M330.71,215.88c13.55-7.82,24.67-1.48,24.71,14.08l7.87-4.54c13.54-7.82,24.66-1.49,24.7,14.08,0,7.78-2.72,16.45-7.17,24.15A52.36,52.36,0,0,1,366,280.37l-1.3.87c-.41.27-.83.52-1.26.77l-15.74,9.09-1.27.69-43.75,25.26c-.42.27-.84.52-1.26.77l-15.75,9.09-1.26.69c-13,6.71-23.4.3-23.44-14.77,0-7.78,2.73-16.46,7.17-24.16s10.6-14.44,17.37-18.35l4.91-2.83c0-7.78,2.72-16.46,7.17-24.16S308.2,228.88,315,225Z"/></g><path class="cls-1" d="M320.07,206.23a12.59,12.59,0,0,0,1.09-1.46.67.67,0,0,1,.06-.12c.06-.08.11-.17.18-.26a.76.76,0,0,1,.08-.11.7.7,0,0,1,.06-.09,1.1,1.1,0,0,0,.14-.18c.14-.22.34-.52.51-.81,0-.06.08-.13.14-.21s.13-.23.21-.35a1.4,1.4,0,0,1,.12-.18c.2-.33.28-.45.45-.76a0,0,0,0,1,0,0c.1-.19.25-.42.46-.8.32-.57.69-1.33,1.13-2.24a2.53,2.53,0,0,0,.12-.23s.35-.74.73-1.67c.17-.43.21-.55.4-1.05,0-.1.07-.19.11-.28l.13-.36c.09-.26.25-.71.4-1.2l.14-.46c.11-.34.2-.66.27-.89,0-.07,0-.12,0-.18a1.21,1.21,0,0,1,.05-.18c.2-.76.22-.83.34-1.35,0-.1.06-.3.1-.58a.06.06,0,0,1,0,0c.07-.29.14-.67.2-1.06a24.75,24.75,0,0,0,.32-3.33,18.41,18.41,0,0,0-.16-3.4c0-.39-.13-.84-.22-1.28,0,0,0,0,0,0-.1-.44-.21-.86-.3-1.23a10.84,10.84,0,0,0-.91-2.21,9,9,0,0,0-1.12-1.7,12.08,12.08,0,0,0-3.41-2.82l-.32-.19-.5-.26a11.14,11.14,0,0,0-2.86-1.13,10.47,10.47,0,0,0-1.64-.25,13.31,13.31,0,0,0-1.67,0,14.51,14.51,0,0,0-3,.58c-.35.12-.76.28-1.17.44a14.19,14.19,0,0,0-1.33-4.25,10.63,10.63,0,0,0-1.7-2.41,7.26,7.26,0,0,0-.58-.55,8.81,8.81,0,0,0-.7-.59c-.65-.5-1.26-.86-1.54-1l-.32-.18a13.18,13.18,0,0,0-3.14-1.35,10.57,10.57,0,0,0-3-.35c-.7,0-1.63.17-2.34.29a10.43,10.43,0,0,0-1.22.32c-.79.25-1.78.69-2.54,1-.39.19-.88.48-1.26.68h0L289,165.09l-2.07,1.2-2.08,1.19-2.09,1.2-2.07,1.21-2.07,1.2-2.09,1.19-2.07,1.2-2.08,1.21-2,1.18,0,0a25.1,25.1,0,0,0-3.42,2.37,33,33,0,0,0-3.19,3,39.16,39.16,0,0,0-2.89,3.49c-.17.23-.71,1-1.05,1.5-.73,1.1-.75,1.15-1,1.55-.14.24-.32.56-.47.79a40.49,40.49,0,0,0-3.63,8.3,35.27,35.27,0,0,0-1,4.23c-.16,1.05-.2,1.46-.28,2.49,0,.41,0,.69-.06,1.62L242,211.78h0a23.59,23.59,0,0,0-2.07,1.34c-.88.65-.88.65-1.35,1-.74.61-1.3,1.13-1.3,1.13-.7.66-.78.73-1.28,1.22s-1,1.06-1.21,1.3c-1.19,1.34-2.11,2.58-2.28,2.82a41.23,41.23,0,0,0-3.82,6.29c-.54,1.11-1,2.23-1.46,3.33a35.87,35.87,0,0,0-1.12,3.41c-.28,1.05-.29,1.09-.42,1.7s-.13.6-.32,1.69c-.12.7-.25,1.95-.28,2.5s-.05,1.14-.05,1.63,0,1.1.05,1.57a18.23,18.23,0,0,0,.41,2.68,15.2,15.2,0,0,0,.79,2.33,8.77,8.77,0,0,0,.5,1,9.23,9.23,0,0,0,.61,1,11.11,11.11,0,0,0,1.66,1.8,11.58,11.58,0,0,0,1.07.82l.46.29.36.23,0,0a1.86,1.86,0,0,1,.19.11l.31.19a13.1,13.1,0,0,0,3.06,1.33,9,9,0,0,0,1.46.29,8.06,8.06,0,0,0,1.55.08,20.22,20.22,0,0,0,2.31-.28c.37-.07.86-.21,1.22-.32s.59-.2.91-.33.65-.25,1-.4c0,0,0,0,.07,0l.61-.26c.41-.19.91-.5,1.31-.71l6.62-3.83,6.62-3.81,6.62-3.83,6.62-3.81,6.62-3.83,6.62-3.82,6.62-3.83,6.62-3.81,6.62-3.83,6.62-3.81c.29-.18.59-.35.87-.54l0,0a19.24,19.24,0,0,0,1.7-1.19,9.2,9.2,0,0,0,.75-.57l.09-.08a1.26,1.26,0,0,0,.17-.13c.22-.2.44-.37.66-.56,0,0,0,0,0,0s0,0,0,0l.14-.12a1.06,1.06,0,0,1,.16-.15l.12-.1c.11-.1.22-.2.32-.31h0c.81-.77,1.53-1.53,1.54-1.55l.6-.66c.21-.25.44-.5.66-.77l.28-.33C319.55,206.9,319.82,206.57,320.07,206.23Z"/><path class="cls-3" d="M294,165.58c9.34-5.39,17-1,17.06,9.68,9.35-5.4,17-1,17.05,9.72,0,5.37-1.88,11.36-4.95,16.68s-7.32,10-12,12.67l-66.2,38.22c-9.35,5.4-17,1-17.06-9.72,0-5.38,1.89-11.36,5-16.68s7.31-10,12-12.67l11.43-6.6c0-5.36,1.89-11.33,4.95-16.63s7.32-10,12-12.67Z"/><path class="cls-1" d="M415.11,238.34c0,.62.05,1.44.1,2a27.4,27.4,0,0,0,.61,3.75,22.36,22.36,0,0,0,1.11,3.26c.2.44.48,1,.71,1.43s.6,1,.89,1.39a15,15,0,0,0,2.36,2.56,17.3,17.3,0,0,0,1.49,1.14c.48.34,1,.66,1.3.83a.67.67,0,0,1,.12.06l.41.24a15.87,15.87,0,0,0,7.29,2.36,13.4,13.4,0,0,0,2.1,0c.38,0,.81-.09,1.23-.16.73-.1,1.49-.24,2.1-.38a26.38,26.38,0,0,0,5.45-2.15,1.23,1.23,0,0,0,.25-.14l.14-.06.12-.07s0,0,0,0,0,0,0,0l.6-.33L459.26,245a1.1,1.1,0,0,0,.26-.15,3.72,3.72,0,0,0,.38-.22l0,0,.6-.36Q482.4,231.58,504.29,219l.62-.33.25-.13.39-.23,1.57-.9,1.58-.91,1.57-.92,1.58-.9,1.57-.9,1.57-.92,1.58-.9,1.57-.92,1.58-.91,1.57-.9.25-.16.39-.23,0,0h0l.58-.36,0,0,0,0,.66-.44.65-.44a44.49,44.49,0,0,0,6.58-5.69c.2-.21.4-.42.58-.64.81-.86,1.62-1.78,2.42-2.76l.36-.47a1.84,1.84,0,0,1,.23-.27c1.3-1.68,2.16-3,2.16-3a2,2,0,0,0,.16-.24h0c.18-.24.36-.51.49-.71s.2-.32.31-.49h0c.12-.17.23-.33.32-.48.69-1.1,1.2-2,1.21-2,.41-.72,1.49-2.64,2.46-4.74q.27-.59.45-1a.56.56,0,0,1,.07-.16c.36-.77.56-1.29,1-2.46.19-.49.31-.81.56-1.55q.11-.27.18-.54c0-.1.08-.23.14-.37s.21-.62.46-1.5c.1-.29.19-.61.28-1,.17-.65.25-.91.37-1.47a3.18,3.18,0,0,0,.08-.33,5.55,5.55,0,0,0,.16-.67s.26-1.1.47-2.44c.08-.54.12-.74.16-1.2a1.65,1.65,0,0,1,0-.21.2.2,0,0,1,0-.1c0-.22.06-.52.1-.91a33.12,33.12,0,0,0,.18-3.57c0-.34,0-.67,0-1a24,24,0,0,0-1.05-6.6,18.91,18.91,0,0,0-1.33-3.16,13.85,13.85,0,0,0-1.58-2.37,17.36,17.36,0,0,0-4.71-3.88l-.41-.24c-.24-.13-.48-.26-.73-.38a17,17,0,0,0-3.54-1.47,18,18,0,0,0-1.84-.38c-.32,0-.75-.09-1-.11a13.15,13.15,0,0,0-1.4,0,29.86,29.86,0,0,0-3.39.41,14.11,14.11,0,0,0-1.78.46,38.72,38.72,0,0,0-3.68,1.48c-.59.27-1.33.7-1.9,1q-2.24,1.27-4.47,2.58c-.11-.75-.24-1.5-.38-2.13a12,12,0,0,0-.5-1.71,23.94,23.94,0,0,0-1.05-2.52,15.81,15.81,0,0,0-2.44-3.47l-.81-.78a12.1,12.1,0,0,0-1-.82,17.66,17.66,0,0,0-2.14-1.44l-.41-.24-.73-.4a16.51,16.51,0,0,0-3.63-1.46,15.28,15.28,0,0,0-4.28-.52,32,32,0,0,0-3.39.43,14.82,14.82,0,0,0-1.77.46,37.68,37.68,0,0,0-3.68,1.48c-.57.25-1.31.69-1.85,1h0l-1.58.9-1.57.92-1.58.9-1.57.91-1.58.91-1.57.91-1.58.9-1.57.92-1.57.9-1.58.92a37.82,37.82,0,0,0-5,3.43,48.72,48.72,0,0,0-4.61,4.33,59.23,59.23,0,0,0-4.19,5,62.11,62.11,0,0,0-3.64,5.57,58.38,58.38,0,0,0-5.27,12.07,47.62,47.62,0,0,0-1.43,6.13c-.14.85-.14.85-.31,2.42,0,.36-.06.84-.09,1.18-.05.61-.07,1-.08,2.35-1.62.95-3.24,1.88-4.87,2.82-1.35.79-2.56,1.61-3,1.94-1.27,1-1.27,1-1.94,1.49-1.07.88-1.89,1.64-1.89,1.64-1,.89-1.13,1-1.84,1.77-.89.89-1.5,1.59-1.76,1.88-1.75,1.94-3.06,3.74-3.31,4.08-.42.58-1.05,1.45-1.53,2.17-.22.35-.52.78-.73,1.12s-.5.79-.71,1.14-.46.8-.68,1.14c0,0-.95,1.65-1.88,3.54-.79,1.61-1.51,3.24-2.12,4.84-.94,2.47-1.47,4.4-1.62,4.93a49,49,0,0,0-1.08,4.9c-.06.42-.2,1.27-.3,2.44-.08.81-.08.81-.16,2.38C415.09,237.16,415.09,237.84,415.11,238.34Z"/><g class="cls-2"><path class="cls-3" d="M488.57,143c13.55-7.82,24.67-1.49,24.71,14.07l7.87-4.54c13.54-7.82,24.66-1.48,24.7,14.08,0,7.78-2.73,16.46-7.17,24.16a52.57,52.57,0,0,1-14.81,16.72l-1.3.87c-.42.26-.84.52-1.26.76l-15.75,9.09q-.63.38-1.26.69l-43.75,25.27c-.42.26-.84.52-1.26.76L443.54,254q-.63.38-1.26.69c-13,6.72-23.4.3-23.44-14.77,0-7.78,2.73-16.45,7.17-24.16s10.6-14.44,17.37-18.35l4.9-2.83c0-7.78,2.73-16.45,7.18-24.16s10.6-14.44,17.37-18.35Z"/></g><g class="cls-2"><polygon class="cls-4" points="466.5 364.83 459.94 361.02 428.61 379.11 435.16 382.92 466.5 364.83"/><path class="cls-4" d="M423.6,398,417,394.17a2.15,2.15,0,0,1,.92,2,6.83,6.83,0,0,1-3.09,5.35l6.56,3.81a6.85,6.85,0,0,0,3.09-5.35A2.17,2.17,0,0,0,423.6,398Z"/><path class="cls-5" d="M423.6,398,417,394.17a2.19,2.19,0,0,0-2.19.21l6.56,3.81A2.19,2.19,0,0,1,423.6,398Z"/><path class="cls-4" d="M386.31,425.6l-6.56-3.82a2.18,2.18,0,0,1-2.19.23l6.56,3.81A2.2,2.2,0,0,0,386.31,425.6Z"/><path class="cls-5" d="M376.64,420a2.21,2.21,0,0,0,.92,2l6.56,3.81a2.2,2.2,0,0,1-.92-2h0L376.64,420Z"/><path class="cls-5" d="M376.64,420l6.56,3.81a6.83,6.83,0,0,1,3.09-5.35l-6.56-3.81A6.85,6.85,0,0,0,376.64,420Z"/><path class="cls-5" d="M386.29,418.47a6.83,6.83,0,0,0-3.09,5.35,1.89,1.89,0,0,0,3.11,1.78l35.12-20.28a6.85,6.85,0,0,0,3.09-5.35,1.9,1.9,0,0,0-3.11-1.78Z"/><path class="cls-5" d="M377.56,422l6.56,3.81h0L377.56,422Z"/><path class="cls-5" d="M383.2,423.82h0l-5.79-3.36,2.19,1.27Z"/><polygon class="cls-5" points="421.41 398.19 414.85 394.38 379.73 414.66 386.29 418.47 421.41 398.19"/><path class="cls-6" d="M338,453.59l6.56,3.81c-2-1.19-3.3-3.71-3.31-7.29l-6.56-3.81C334.65,449.88,335.91,452.4,338,453.59Z"/><polygon class="cls-4" points="435.16 382.92 428.61 379.11 334.6 433.38 341.16 437.2 435.16 382.92"/><path class="cls-4" d="M435.16,382.92l-94,54.28,0,12.91c0,7.21,5.13,10.12,11.4,6.5l102.61-59.25c6.27-3.62,11.35-12.4,11.32-19.62l0-12.91Zm-51,42.9a2.2,2.2,0,0,1-.92-2,6.83,6.83,0,0,1,3.09-5.35l35.12-20.28a1.9,1.9,0,0,1,3.11,1.78,6.85,6.85,0,0,1-3.09,5.35L386.31,425.6a2.2,2.2,0,0,1-2.19.22"/><polygon class="cls-6" points="341.16 437.2 334.6 433.38 334.64 446.3 341.2 450.11 341.16 437.2"/><polygon class="cls-7" points="340.86 329.19 341.16 437.2 435.16 382.92 340.86 329.19"/><polygon class="cls-7" points="435.16 382.92 428.61 379.11 334.3 325.38 340.86 329.19 435.16 382.92"/><polygon class="cls-6" points="340.86 329.19 334.3 325.38 334.6 433.38 341.16 437.2 340.86 329.19"/><polygon class="cls-8" points="466.16 244.47 459.6 240.66 356.83 182.1 363.39 185.91 466.16 244.47"/><polygon class="cls-7" points="363.39 185.91 466.16 244.47 465.82 126.77 363.39 185.91"/><polygon class="cls-7" points="465.82 126.77 459.26 122.96 356.83 182.1 363.39 185.91 465.82 126.77"/><polygon class="cls-8" points="340.49 199.13 340.86 329.19 435.16 382.92 466.5 364.83 466.16 244.47 363.39 185.91 340.49 199.13"/><polygon class="cls-6" points="340.49 199.13 333.93 195.32 334.3 325.38 340.86 329.19 340.49 199.13"/><polygon class="cls-8" points="363.39 185.91 356.83 182.1 333.93 195.32 340.49 199.13 363.39 185.91"/></g><g class="cls-2"><path class="cls-6" d="M462.49,112.81,455.93,109c-2.07-1.2-4.93-1-8.09.79l6.56,3.81C457.56,111.78,460.42,111.61,462.49,112.81Z"/><path class="cls-4" d="M425.64,140.3l-6.55-3.81a.89.89,0,0,1,.37.82,2.84,2.84,0,0,1-1.28,2.23l6.56,3.81a2.84,2.84,0,0,0,1.28-2.22A.91.91,0,0,0,425.64,140.3Z"/><path class="cls-5" d="M425.64,140.3l-6.55-3.81a.92.92,0,0,0-.91.08l6.55,3.81A.92.92,0,0,1,425.64,140.3Z"/><path class="cls-4" d="M375.85,171.58l-6.56-3.81a.93.93,0,0,1-.91.09l6.56,3.81A.93.93,0,0,0,375.85,171.58Z"/><path class="cls-5" d="M368,167l6.56,3.81a2.87,2.87,0,0,1,1.29-2.23l-6.56-3.81A2.9,2.9,0,0,0,368,167Z"/><path class="cls-5" d="M375.84,168.61a2.87,2.87,0,0,0-1.29,2.23.89.89,0,0,0,.39.83.93.93,0,0,0,.91-.09l48.89-28.23a2.84,2.84,0,0,0,1.28-2.22.91.91,0,0,0-.38-.83.92.92,0,0,0-.91.08Z"/><polygon class="cls-5" points="424.74 143.35 418.18 139.54 369.29 167.76 375.85 171.58 424.74 143.35"/><path class="cls-5" d="M368.38,167.86l6.56,3.81h0l-6.56-3.81Z"/><path class="cls-5" d="M368,167a.9.9,0,0,0,.39.83l6.56,3.81a.89.89,0,0,1-.39-.83h0a1.09,1.09,0,0,1-.33-.19l-2.9-1.68-2.57-1.49L368,167Z"/><path class="cls-5" d="M368.75,167.48l5.8,3.36h0Z"/><path class="cls-4" d="M370.48,171.93l-6.56-3.81a1.09,1.09,0,0,1,.46,1,3.41,3.41,0,0,1-1.54,2.66,1.1,1.1,0,0,1-1.1.12l6.55,3.81a1.12,1.12,0,0,0,1.11-.12,3.41,3.41,0,0,0,1.54-2.66A1.09,1.09,0,0,0,370.48,171.93Z"/><path class="cls-3" d="M361.74,171.9l6.55,3.81h0l-6.55-3.81Z"/><path class="cls-3" d="M361.74,171.9c2.19,1.26,4.37,2.54,6.55,3.81a1.07,1.07,0,0,1-.45-1l-3.71-2.16-.85-.5-1.23-.71a4,4,0,0,0-.77-.45A1.08,1.08,0,0,0,361.74,171.9Z"/><path class="cls-3" d="M361.28,170.9h0q3.29,1.9,6.56,3.82h0l-6.56-3.81Z"/><path class="cls-3" d="M363.92,168.12a1.1,1.1,0,0,0-1.09.1l6.56,3.81a1.1,1.1,0,0,1,1.09-.1Z"/><path class="cls-3" d="M361.73,169.39a3.13,3.13,0,0,0-.45,1.51l6.56,3.81a3.13,3.13,0,0,1,.45-1.51,3.19,3.19,0,0,1,1.1-1.17l-6.56-3.81A3.19,3.19,0,0,0,361.73,169.39Z"/><path class="cls-4" d="M351.79,172.84c-6.27,3.62-11.34,12.41-11.32,19.62l0,6.67,22.9-13.22,102.43-59.14,0-6.67c0-7.22-5.13-10.12-11.4-6.5Zm23.15-1.17a.89.89,0,0,1-.39-.83,2.87,2.87,0,0,1,1.29-2.23l48.89-28.23a.92.92,0,0,1,.91-.08.91.91,0,0,1,.38.83,2.84,2.84,0,0,1-1.28,2.22l-48.89,28.23a.93.93,0,0,1-.91.09m-6.65,4a1.07,1.07,0,0,1-.45-1,3.13,3.13,0,0,1,.45-1.51,3.19,3.19,0,0,1,1.1-1.17,1,1,0,0,1,1.55.9,3.41,3.41,0,0,1-1.54,2.66,1.12,1.12,0,0,1-1.11.12"/><path class="cls-3" d="M369.39,172a3.19,3.19,0,0,0-1.1,1.17,3.13,3.13,0,0,0-.45,1.51,1.07,1.07,0,0,0,.45,1,1.12,1.12,0,0,0,1.11-.12,3.41,3.41,0,0,0,1.54-2.66,1,1,0,0,0-1.55-.9Z"/><polygon class="cls-6" points="340.47 192.46 333.91 188.65 333.93 195.32 340.49 199.13 340.47 192.46"/><polygon class="cls-6" points="454.4 113.6 447.85 109.79 345.24 169.03 351.8 172.84 454.4 113.6"/><path class="cls-6" d="M351.79,172.84,345.24,169c-6.28,3.62-11.35,12.41-11.33,19.62l6.56,3.81C340.45,185.25,345.52,176.46,351.79,172.84Z"/></g><g class="cls-2"><path class="cls-1" d="M398.68,102.62c-6,3.48-10.9,11.91-10.88,18.83s4.93,9.71,10.95,6.23,10.89-11.9,10.87-18.83S404.71,99.14,398.68,102.62Z"/></g><g class="cls-2"><path class="cls-1" d="M398.55,70.34l-.43.25c-10.44,6.17-20.18,16.92-27.79,30.57-.87,1.55-1.7,3.14-2.52,4.77-1.77,3.58-2,7.1-.8,9.17a3.46,3.46,0,0,0,1.9,1.65,5.43,5.43,0,0,0,4.41-.76,15,15,0,0,0,5.53-6.21c5.23-10.51,12.12-18.67,19.45-23l.34-.2c7.32-4.1,14.25-3.92,19.51.54,1.39,1.16,3.4,1,5.43-.12a13.85,13.85,0,0,0,4.52-4.4,16.93,16.93,0,0,0,1.9-3.84c1.17-3.43.91-6.68-.87-8.2a21.44,21.44,0,0,0-2.54-1.86c-7.66-4.83-17.43-4.31-27.87,1.58Z"/><path class="cls-1" d="M397.22,39.3C379,49.82,361.86,69.24,348.78,94.22c-1.86,3.55-2.19,7.13-1.09,9.3a3.56,3.56,0,0,0,1.82,1.75,5.2,5.2,0,0,0,4.48-.6,13.56,13.56,0,0,0,4-3.64,17.41,17.41,0,0,0,1.47-2.33c10.35-19.77,23.74-35.05,37.78-43.15l1-.56.24-.14q.48-.3,1-.57c14.06-8.12,27.49-8.34,37.92-.56a3.45,3.45,0,0,0,1.49.63,5.94,5.94,0,0,0,3.87-.91,14.25,14.25,0,0,0,4.63-4.67,16.34,16.34,0,0,0,1.81-3.85c1.07-3.42.73-6.62-1.14-8C434.86,27.1,417.66,27.5,399.45,38l-1,.58-.25.14Z"/></g><path class="cls-5" d="M332.88,278.84a3.46,3.46,0,0,0-.52,1.72l0,12.69a1.22,1.22,0,0,0,.51,1.12l4.16,2.42a.27.27,0,0,1-.08-.07,1.14,1.14,0,0,0,1.32-.05,3.83,3.83,0,0,0,1.73-3l0-12.7a1.25,1.25,0,0,0-.5-1.13l-.07,0-4.09-2.38a1.2,1.2,0,0,0-1.23.12A3.36,3.36,0,0,0,332.88,278.84Z"/><path class="cls-5" d="M332.27,220.81l.08,51.56a1.22,1.22,0,0,0,.5,1.12l4.12,2.39a1.21,1.21,0,0,0,1.28-.09,3.83,3.83,0,0,0,1.73-3l-.07-51.57a1.18,1.18,0,0,0-.55-1.14l0,0-.07,0-4.08-2.38a1.26,1.26,0,0,0-1.24.12,3.85,3.85,0,0,0-1.74,3Z"/><polygon class="cls-7" points="472.6 431.48 485.01 433.91 503.35 414.55 472.6 431.48"/><path class="cls-3" d="M492.83,435.77l-1.66,12.65c5.59.83,11.22,1.37,16.85,1.66a41.47,41.47,0,0,0,8-.18c.5-.07,1-.16,1.46-.27a13.48,13.48,0,0,0,8-4.74,8.46,8.46,0,0,0,1-8.89,8.92,8.92,0,0,0-6.35-4.2,13.64,13.64,0,0,0-2.46-.22,23.65,23.65,0,0,0-5.34.71C505.78,433.75,499.37,436.58,492.83,435.77Z"/><path class="cls-3" d="M480.82,469.19c1.3,2,2.39,6,.84,8.12h0c1.32-1.53,2.64-3.19,2.77-5.22a15.82,15.82,0,0,0-2.24-8.44c-2.84-5.17-7.27-9.24-11.89-12.91-5,.27-9.89.42-14.66.42a184,184,0,0,1,19.17,12.29A22.81,22.81,0,0,1,480.82,469.19Z"/><path class="cls-9" d="M448.73,451.06c-.61,2-1.78,3.95-1.74,6.06a7.31,7.31,0,0,0,2.25,4.8,21.62,21.62,0,0,0,4.39,3.19c7.08,4.28,14.16,8.57,21.48,12.43,1.43.76,3.08,1.53,4.65,1.07a3.39,3.39,0,0,0,1.9-1.3c1.55-2.16.46-6.1-.84-8.12a22.81,22.81,0,0,0-6-5.74,184,184,0,0,0-19.17-12.29Q452.13,451.16,448.73,451.06Z"/><polygon class="cls-10" points="456.4 440.41 472.59 431.49 503.35 414.54 518.89 405.98 519.74 398.54 522.72 372.76 523.85 362.87 486.7 382.21 475.47 388.06 463.14 394.48 462.29 400.29 460.7 411.18 456.4 440.41"/><path class="cls-9" d="M526.37,436a8.46,8.46,0,0,1-1,8.89,13.48,13.48,0,0,1-8,4.74c-.48.11-1,.2-1.46.27h0c2.62-.38,5.35-.13,7.87-.92,3.34-1.05,6.59-3.39,7.35-6.81.84-3.73-1.66-7.62-5-9.44-2.63-1.42-5.62-1.18-8.61-1.15h0a13.64,13.64,0,0,1,2.46.22A8.92,8.92,0,0,1,526.37,436Z"/><path class="cls-7" d="M522.72,372.76l-3,25.78C535.25,385.28,525.91,375.46,522.72,372.76Z"/><path class="cls-8" d="M399.78,432.25c5,13.05,24.63,18.07,49,18.81,2.28.08,4.58.1,6.92.1,4.75,0,9.67-.16,14.64-.42,6.86-.35,13.84-.92,20.79-1.66l.08-.66,1.67-12.65,0-.33L485,433.91l-12.42-2.42-16.19,8.92L417.27,416l21.51-11.74h0l-2-.58a122.09,122.09,0,0,0-24.53-4.46v0S392,412.11,399.78,432.25Z"/><path class="cls-11" d="M456.41,440.41l4.28-29.23-1-.14c-7.47,2-14.83-4.92-19.14-6.21l-1.78-.54h0l-21.5,11.75Z"/><path class="cls-9" d="M390.24,390.77s1.15,7.55,17.6,8.23c1.51.05,3,.13,4.4.25a122.09,122.09,0,0,1,24.53,4.46v0l2.63-8.7s-11.16-8.26-22.13-11.28h0a26.12,26.12,0,0,0-8.27-1.06l2.66-9.28,0-.07,2-6c.27-1.18.63-2.4,1-3.69v0c.56-2.48,1.3-4.34,1.92-6.46a34.35,34.35,0,0,0,1.21-8.74v-.15c-.06-11.77-8.89-15-8.89-15l-.07-.5a12.18,12.18,0,0,1-3.42,0A20.11,20.11,0,0,0,394.26,348c-.68,4.26-1.58,9.76-2.39,15.54-.32,2.34-.63,4.71-.91,7.07C390.11,378.25,389.62,385.68,390.24,390.77Z"/><path class="cls-12" d="M414.76,363.56v0c.62-2,1.34-4.18,1.92-6.49C416.06,359.22,415.32,361.08,414.76,363.56Z"/><path class="cls-13" d="M408.93,332.7l.07.5s8.83,3.24,8.89,15v.15c0,.39,0,.79,0,1.17a26.76,26.76,0,0,1-1.19,7.57c-.62,2.12-1.36,4-1.92,6.46v0l.83,6.42c0,.33,1.6,13.12,1.68,13.69h0c11,3,22.13,11.28,22.13,11.28,18.37,0,22.57,5.25,22.57,5.25l.32.05.85-5.81.08-.46c-1.78-3.73-4.22-27.75-4.22-27.75a17.21,17.21,0,0,0,3-1.54.57.57,0,0,0,.15-.09l.25-.19.16-.12c2.05-1.59,8.77-8,3.54-20-4.27-8.2-15.69-26-15.69-26h0a58.18,58.18,0,0,0-6.25,1.06c1.24,3.32,3.39,6.43,3.11,9.93a9,9,0,0,1-3.32,6,14.77,14.77,0,0,1-6.34,2.9,11.86,11.86,0,0,1-3.56.32,10.51,10.51,0,0,1-7.17-4.33,23.47,23.47,0,0,1-3.55-7.81l-.12-.18C418.32,329.92,413.15,332.2,408.93,332.7Z"/><path class="cls-14" d="M436.77,403.69v0l2,.58c.69.21,1.27.37,1.77.53,4.32,1.29,11.68,8.23,19.14,6.22l1,.14,1.59-10.89-.32-.05S457.77,395,439.4,395Z"/><path class="cls-9" d="M466.07,344.29c5.23,12.07-1.49,18.45-3.54,20l-.16.12-.25.19a.57.57,0,0,1-.15.09s3.41,14.08,4.58,15.87,8.92,7.46,8.92,7.46l11.23-5.85-6.18-7.88-8.34-28.15-1.39-4.75s-4.4-22.11-11.1-23.16a25,25,0,0,0-2.78-.26,43.36,43.36,0,0,0-6.53.28h0S461.8,336.09,466.07,344.29Z"/><path class="cls-12" d="M443.43,316.76a14,14,0,0,0,.7,2.59,58.18,58.18,0,0,1,6.25-1.06,43.36,43.36,0,0,1,6.53-.28c1.2-1.13,1.46-4.42,1.06-6-1.07-4.39-2.18-8.78-3.25-13.15C452.58,310.48,447.47,315.71,443.43,316.76Z"/><path class="cls-14" d="M423.18,326.2l.13.19a23.11,23.11,0,0,0,3.55,7.8,10.52,10.52,0,0,0,7.16,4.33,11.86,11.86,0,0,0,3.56-.32,14.83,14.83,0,0,0,6.34-2.9,9,9,0,0,0,3.32-6c.29-3.49-1.87-6.61-3.1-9.93a13.37,13.37,0,0,1-.71-2.6,7.06,7.06,0,0,1-1.15.19c-2.78.18-7.49-2.12-10.54-3.82-.2,3.07-.95,5.87-2.95,8A43.25,43.25,0,0,1,423.18,326.2Z"/><path class="cls-14" d="M431.74,313.12c3.05,1.7,7.76,4,10.54,3.82a7.06,7.06,0,0,0,1.15-.19c4-1.05,9.15-6.27,11.29-17.92.1-.52.18-1.05.27-1.6a43.08,43.08,0,0,0,.48-8.91c-.42-7.94-3.25-11.84-3.25-11.84s-1.49,9.42-14.72,12.62C427.47,291.53,432.35,303.57,431.74,313.12Z"/><path class="cls-12" d="M380,366.77a11.57,11.57,0,0,0,10.75,3.84l.24,0c.28-2.36.59-4.73.91-7.07.81-5.78,1.71-11.28,2.39-15.54a20.11,20.11,0,0,1,11.25-15.34,12.18,12.18,0,0,0,3.42,0c4.22-.5,9.39-2.78,14.25-6.5a43.35,43.35,0,0,0,5.6-5.07c2-2.14,2.75-4.94,3-8,.61-9.55-4.26-21.59,5.77-24,13.23-3.21,14.73-12.62,14.73-12.62s2.82,3.9,3.24,11.84c6.78-14.95-3.17-22-16.73-27.06a28.19,28.19,0,0,0-16.38-.9,27.78,27.78,0,0,0-2.86.87,24.91,24.91,0,0,0-4,1.89,17.72,17.72,0,0,0-5.92,7.33c-2.07,4.69-2.46,9.93-2.63,15.06s-.17,10.33-1.55,15.26a28.15,28.15,0,0,1-5,9.75c-2.83,3.58-6.49,6.38-9.91,9.43-1.1,1-2.18,2-3.2,3.06-4.17,4.37-7.43,10.47-5.85,16.31a28.53,28.53,0,0,1,1.33,4.62c.4,4.22-3.31,7.61-4.77,11.58A11.57,11.57,0,0,0,380,366.77Z"/><path class="cls-15" d="M415.49,263.12a12.61,12.61,0,0,1,4-1.89,12,12,0,0,1,1.35-.28"/></svg>