<svg xmlns="http://www.w3.org/2000/svg" xmlns:xlink="http://www.w3.org/1999/xlink" viewBox="0 0 1920 1080"><defs><style>.cls-1{isolation:isolate;}.cls-2{fill:url(#Degradado_sin_nombre_389);}.cls-3{fill:url(#Degradado_sin_nombre_2);}.cls-4{fill:none;stroke-linecap:round;stroke-linejoin:round;stroke-width:1.43px;stroke:url(#Degradado_sin_nombre_2-2);}.cls-5{fill:url(#Degradado_sin_nombre_52);}.cls-6,.cls-7,.cls-8{opacity:0.57;}.cls-6{fill:url(#Degradado_sin_nombre_19);}.cls-7{fill:url(#Degradado_sin_nombre_18);}.cls-8{fill:url(#Degradado_sin_nombre_18-3);}.cls-9{fill:url(#Degradado_sin_nombre_24);}.cls-10{fill:url(#Degradado_sin_nombre_52-2);}.cls-11,.cls-12,.cls-13,.cls-20,.cls-21,.cls-22,.cls-25{mix-blend-mode:multiply;}.cls-11{fill:url(#Degradado_sin_nombre_85);}.cls-12{fill:url(#Degradado_sin_nombre_85-2);}.cls-13{fill:url(#Degradado_sin_nombre_85-3);}.cls-14{fill:url(#Degradado_sin_nombre_138);}.cls-15{fill:url(#Degradado_sin_nombre_107);}.cls-16{fill:url(#Degradado_sin_nombre_17);}.cls-17,.cls-19,.cls-20,.cls-47,.cls-49{opacity:0.34;}.cls-17{fill:url(#Degradado_sin_nombre_5);}.cls-18{fill:url(#Degradado_sin_nombre_207);}.cls-19{fill:url(#Degradado_sin_nombre_5-2);}.cls-20{fill:url(#Degradado_sin_nombre_5-3);}.cls-21,.cls-22{opacity:0.99;}.cls-21{fill:url(#Degradado_sin_nombre_5-4);}.cls-22{fill:url(#Degradado_sin_nombre_5-5);}.cls-23,.cls-52{fill:#fff;}.cls-23{opacity:0.2;}.cls-24{fill:url(#Degradado_sin_nombre_2-3);}.cls-25{fill:url(#Degradado_sin_nombre_24-2);}.cls-26{fill:#009bff;}.cls-27{fill:url(#Degradado_sin_nombre_82);}.cls-28{fill:url(#Degradado_sin_nombre_67);}.cls-29{fill:url(#Degradado_sin_nombre_67-2);}.cls-30{opacity:0.5;fill:url(#Degradado_sin_nombre_71);}.cls-31{fill:url(#Degradado_sin_nombre_75);}.cls-32{fill:url(#Degradado_sin_nombre_75-2);}.cls-33{fill:url(#Degradado_sin_nombre_75-3);}.cls-34{fill:url(#Degradado_sin_nombre_75-4);}.cls-35{fill:url(#Degradado_sin_nombre_75-5);}.cls-36{fill:url(#Degradado_sin_nombre_75-6);}.cls-37{fill:url(#Degradado_sin_nombre_75-7);}.cls-38{fill:url(#Degradado_sin_nombre_75-8);}.cls-39{fill:url(#Degradado_sin_nombre_75-9);}.cls-40{fill:url(#Degradado_sin_nombre_75-10);}.cls-41{fill:url(#Degradado_sin_nombre_75-11);}.cls-42{fill:url(#Degradado_sin_nombre_75-12);}.cls-43{fill:url(#Degradado_sin_nombre_75-13);}.cls-44{fill:url(#Degradado_sin_nombre_75-14);}.cls-45{fill:url(#Degradado_sin_nombre_138-2);}.cls-46{fill:#00fcff;}.cls-47{fill:url(#Degradado_sin_nombre_5-6);}.cls-48,.cls-50{opacity:0.68;}.cls-48{fill:url(#Degradado_sin_nombre_5-7);}.cls-49{fill:url(#Degradado_sin_nombre_5-8);}.cls-50{fill:url(#Degradado_sin_nombre_5-9);}.cls-51{opacity:0.1;}</style><linearGradient id="Degradado_sin_nombre_389" x1="960" y1="1338.42" x2="960" y2="31.24" gradientUnits="userSpaceOnUse"><stop offset="0" stop-color="#d6e9ff"/><stop offset="0.48" stop-color="#e5f1ff"/><stop offset="1" stop-color="#f0f7ff"/></linearGradient><linearGradient id="Degradado_sin_nombre_2" x1="2263.46" y1="745.99" x2="2936.92" y2="745.99" gradientTransform="matrix(-1, 0, 0, 1, 3014.4, 0)" gradientUnits="userSpaceOnUse"><stop offset="0" stop-color="#df4de1" stop-opacity="0"/><stop offset="0.17" stop-color="#cd67e2" stop-opacity="0.13"/><stop offset="0.55" stop-color="#9ea8e4" stop-opacity="0.47"/><stop offset="1" stop-color="#63fbe7" stop-opacity="0.9"/></linearGradient><linearGradient id="Degradado_sin_nombre_2-2" x1="2247.69" y1="746.96" x2="2956.83" y2="746.96" xlink:href="#Degradado_sin_nombre_2"/><linearGradient id="Degradado_sin_nombre_52" x1="2285.43" y1="745.99" x2="2913.86" y2="745.99" gradientTransform="matrix(-1, 0, 0, 1, 3014.4, 0)" gradientUnits="userSpaceOnUse"><stop offset="0" stop-color="#a82cbf"/><stop offset="0.24" stop-color="#8d27ae" stop-opacity="0.81"/><stop offset="0.77" stop-color="#491985" stop-opacity="0.32"/><stop offset="1" stop-color="#2a1372" stop-opacity="0.1"/></linearGradient><linearGradient id="Degradado_sin_nombre_19" x1="3356.82" y1="667.77" x2="3922.79" y2="667.77" gradientTransform="matrix(-1, 0, 0, 1, 4056.12, 0)" gradientUnits="userSpaceOnUse"><stop offset="0" stop-color="#49adff"/><stop offset="0.1" stop-color="#5996f1"/><stop offset="0.29" stop-color="#756fd8"/><stop offset="0.48" stop-color="#8b50c5"/><stop offset="0.66" stop-color="#9a3ab7"/><stop offset="0.84" stop-color="#a42daf"/><stop offset="1" stop-color="#a728ac"/></linearGradient><linearGradient id="Degradado_sin_nombre_18" x1="3356.82" y1="610.23" x2="3922.79" y2="610.23" gradientTransform="matrix(-1, 0, 0, 1, 4056.12, 0)" gradientUnits="userSpaceOnUse"><stop offset="0" stop-color="#a728ac"/><stop offset="0.16" stop-color="#a42daf"/><stop offset="0.34" stop-color="#9a3ab7"/><stop offset="0.52" stop-color="#8b50c5"/><stop offset="0.71" stop-color="#756fd8"/><stop offset="0.9" stop-color="#5996f1"/><stop offset="1" stop-color="#49adff"/></linearGradient><linearGradient id="Degradado_sin_nombre_18-3" x1="3357.46" y1="661.57" x2="3922.78" y2="661.57" xlink:href="#Degradado_sin_nombre_18"/><linearGradient id="Degradado_sin_nombre_24" x1="2325.35" y1="609.38" x2="2873.54" y2="609.38" gradientTransform="matrix(-1, 0, 0, 1, 3014.4, 0)" gradientUnits="userSpaceOnUse"><stop offset="0" stop-color="#cb30c1"/><stop offset="0.08" stop-color="#b82db8"/><stop offset="0.3" stop-color="#86249f"/><stop offset="0.51" stop-color="#5e1c8b"/><stop offset="0.71" stop-color="#41177e"/><stop offset="0.88" stop-color="#301475"/><stop offset="1" stop-color="#2a1372"/></linearGradient><linearGradient id="Degradado_sin_nombre_52-2" x1="2696.84" y1="575.37" x2="2820.75" y2="575.37" xlink:href="#Degradado_sin_nombre_52"/><linearGradient id="Degradado_sin_nombre_85" x1="2618.87" y1="525.86" x2="2742.78" y2="525.86" gradientTransform="matrix(-1, 0, 0, 1, 3014.4, 0)" gradientUnits="userSpaceOnUse"><stop offset="0" stop-color="#681f97"/><stop offset="0.3" stop-color="#571c8d" stop-opacity="0.75"/><stop offset="0.97" stop-color="#2c1373" stop-opacity="0.13"/><stop offset="1" stop-color="#2a1372" stop-opacity="0.1"/></linearGradient><linearGradient id="Degradado_sin_nombre_85-2" x1="2638.77" y1="609.38" x2="2722.88" y2="609.38" xlink:href="#Degradado_sin_nombre_85"/><linearGradient id="Degradado_sin_nombre_85-3" x1="2544.41" y1="611.97" x2="2600.46" y2="611.97" xlink:href="#Degradado_sin_nombre_85"/><linearGradient id="Degradado_sin_nombre_138" x1="2422.4" y1="600.47" x2="2549.9" y2="600.47" gradientTransform="matrix(-1, 0, 0, 1, 3014.4, 0)" gradientUnits="userSpaceOnUse"><stop offset="0" stop-color="#c935db" stop-opacity="0.2"/><stop offset="0.05" stop-color="#be3dda" stop-opacity="0.24"/><stop offset="0.39" stop-color="#6d79d1" stop-opacity="0.57"/><stop offset="0.67" stop-color="#32a5ca" stop-opacity="0.8"/><stop offset="0.88" stop-color="#0ec0c7" stop-opacity="0.95"/><stop offset="0.99" stop-color="#00cac5"/></linearGradient><linearGradient id="Degradado_sin_nombre_107" x1="2479.89" y1="641.08" x2="2554.61" y2="641.08" gradientTransform="matrix(-1, 0, 0, 1, 3014.4, 0)" gradientUnits="userSpaceOnUse"><stop offset="0" stop-color="#c935db" stop-opacity="0.2"/><stop offset="0.13" stop-color="#d242e1" stop-opacity="0.33"/><stop offset="0.44" stop-color="#e560ee" stop-opacity="0.61"/><stop offset="0.7" stop-color="#f376f7" stop-opacity="0.82"/><stop offset="0.89" stop-color="#fc84fd" stop-opacity="0.95"/><stop offset="1" stop-color="#ff89ff"/></linearGradient><linearGradient id="Degradado_sin_nombre_17" x1="2377.38" y1="634.8" x2="2482.59" y2="665.9" gradientTransform="matrix(-1, 0, 0, 1, 3014.4, 0)" gradientUnits="userSpaceOnUse"><stop offset="0" stop-color="#fffa18" stop-opacity="0.7"/><stop offset="0.14" stop-color="#fff51e" stop-opacity="0.68"/><stop offset="0.29" stop-color="#fde730" stop-opacity="0.63"/><stop offset="0.44" stop-color="#fccf4d" stop-opacity="0.54"/><stop offset="0.61" stop-color="#f9ae76" stop-opacity="0.42"/><stop offset="0.78" stop-color="#f583aa" stop-opacity="0.26"/><stop offset="0.95" stop-color="#f150ea" stop-opacity="0.06"/><stop offset="1" stop-color="#f03fff" stop-opacity="0"/></linearGradient><linearGradient id="Degradado_sin_nombre_5" x1="3809.39" y1="497.39" x2="3829.09" y2="497.39" gradientTransform="matrix(-1, 0, 0, 1, 4056.12, 0)" gradientUnits="userSpaceOnUse"><stop offset="0" stop-color="#a728ac"/><stop offset="0.13" stop-color="#a32dad"/><stop offset="0.28" stop-color="#973ab2"/><stop offset="0.44" stop-color="#8350b9"/><stop offset="0.6" stop-color="#666fc3"/><stop offset="0.76" stop-color="#4297d0"/><stop offset="0.93" stop-color="#16c6df"/><stop offset="1" stop-color="#00dfe7"/></linearGradient><linearGradient id="Degradado_sin_nombre_207" x1="3809.39" y1="497.81" x2="3824.93" y2="497.81" gradientTransform="matrix(-1, 0, 0, 1, 4056.12, 0)" gradientUnits="userSpaceOnUse"><stop offset="0" stop-color="#a728ac"/><stop offset="0.02" stop-color="#a52dad"/><stop offset="0.04" stop-color="#9e3aaf"/><stop offset="0.06" stop-color="#9450b3"/><stop offset="0.08" stop-color="#856fb8"/><stop offset="0.1" stop-color="#7297bf"/><stop offset="0.13" stop-color="#5bc7c7"/><stop offset="0.15" stop-color="#42fbd0"/><stop offset="0.17" stop-color="#45e6cb"/><stop offset="0.21" stop-color="#4db8bf"/><stop offset="0.25" stop-color="#5390b4"/><stop offset="0.3" stop-color="#5870ac"/><stop offset="0.35" stop-color="#5c57a5"/><stop offset="0.4" stop-color="#5f45a1"/><stop offset="0.45" stop-color="#603a9e"/><stop offset="0.51" stop-color="#61379d"/><stop offset="0.55" stop-color="#603b9e"/><stop offset="0.59" stop-color="#5e48a2"/><stop offset="0.64" stop-color="#5b5ea7"/><stop offset="0.69" stop-color="#567caf"/><stop offset="0.73" stop-color="#50a4b9"/><stop offset="0.78" stop-color="#48d3c6"/><stop offset="0.82" stop-color="#42fbd0"/><stop offset="0.98" stop-color="#07e2e5"/><stop offset="1" stop-color="#00dfe7"/></linearGradient><linearGradient id="Degradado_sin_nombre_5-2" x1="3810.29" y1="497.32" x2="3828.19" y2="497.32" xlink:href="#Degradado_sin_nombre_5"/><linearGradient id="Degradado_sin_nombre_5-3" x1="3812.57" y1="497.32" x2="3825.91" y2="497.32" xlink:href="#Degradado_sin_nombre_5"/><linearGradient id="Degradado_sin_nombre_5-4" x1="3813.99" y1="497.32" x2="3824.49" y2="497.32" xlink:href="#Degradado_sin_nombre_5"/><linearGradient id="Degradado_sin_nombre_5-5" x1="3816.75" y1="497.32" x2="3821.73" y2="497.32" xlink:href="#Degradado_sin_nombre_5"/><linearGradient id="Degradado_sin_nombre_2-3" x1="2558.92" y1="564.5" x2="2558.92" y2="741.9" xlink:href="#Degradado_sin_nombre_2"/><linearGradient id="Degradado_sin_nombre_24-2" x1="2257.32" y1="640.77" x2="2306.92" y2="640.77" gradientTransform="matrix(-0.87, -0.5, -1.97, 1.13, 3491, 917.77)" xlink:href="#Degradado_sin_nombre_24"/><radialGradient id="Degradado_sin_nombre_82" cx="2601.22" cy="365.84" r="236.05" gradientTransform="matrix(-1, 0, 0, 1.19, 3014.4, -69.53)" gradientUnits="userSpaceOnUse"><stop offset="0" stop-color="#aa4ae6" stop-opacity="0.9"/><stop offset="0.06" stop-color="#af4ae6" stop-opacity="0.81"/><stop offset="0.24" stop-color="#be4be4" stop-opacity="0.57"/><stop offset="0.42" stop-color="#ca4ce3" stop-opacity="0.36"/><stop offset="0.59" stop-color="#d34ce2" stop-opacity="0.21"/><stop offset="0.75" stop-color="#da4de2" stop-opacity="0.09"/><stop offset="0.89" stop-color="#de4de1" stop-opacity="0.02"/><stop offset="1" stop-color="#df4de1" stop-opacity="0"/></radialGradient><linearGradient id="Degradado_sin_nombre_67" x1="2554.73" y1="610.89" x2="2676.37" y2="116.06" gradientTransform="matrix(-1, 0, 0, 1, 3014.4, 0)" gradientUnits="userSpaceOnUse"><stop offset="0" stop-color="#df67f9" stop-opacity="0.9"/><stop offset="0.11" stop-color="#df63f5" stop-opacity="0.75"/><stop offset="0.28" stop-color="#df5cef" stop-opacity="0.52"/><stop offset="0.45" stop-color="#df57ea" stop-opacity="0.34"/><stop offset="0.61" stop-color="#df52e6" stop-opacity="0.19"/><stop offset="0.76" stop-color="#df4fe3" stop-opacity="0.09"/><stop offset="0.89" stop-color="#df4ee2" stop-opacity="0.02"/><stop offset="1" stop-color="#df4de1" stop-opacity="0"/></linearGradient><linearGradient id="Degradado_sin_nombre_67-2" x1="2712.96" y1="891.82" x2="2712.96" y2="268.31" xlink:href="#Degradado_sin_nombre_67"/><linearGradient id="Degradado_sin_nombre_71" x1="2398.74" y1="898.63" x2="2398.74" y2="384.88" gradientTransform="matrix(-1, 0, 0, 1, 3014.4, 0)" gradientUnits="userSpaceOnUse"><stop offset="0" stop-color="#ff71f9" stop-opacity="0.9"/><stop offset="0.12" stop-color="#f96af5" stop-opacity="0.73"/><stop offset="0.29" stop-color="#f161ef" stop-opacity="0.51"/><stop offset="0.46" stop-color="#eb5aea" stop-opacity="0.33"/><stop offset="0.62" stop-color="#e654e6" stop-opacity="0.19"/><stop offset="0.76" stop-color="#e250e3" stop-opacity="0.08"/><stop offset="0.9" stop-color="#e04ee2" stop-opacity="0.02"/><stop offset="1" stop-color="#df4de1" stop-opacity="0"/></linearGradient><linearGradient id="Degradado_sin_nombre_75" x1="2625.97" y1="853.33" x2="2625.97" y2="654.07" gradientTransform="matrix(1, 0, 0, -1, -2237.54, 1507.4)" gradientUnits="userSpaceOnUse"><stop offset="0" stop-color="#df4de1" stop-opacity="0"/><stop offset="0.1" stop-color="#e04ee2" stop-opacity="0.02"/><stop offset="0.24" stop-color="#e252e3" stop-opacity="0.08"/><stop offset="0.38" stop-color="#e659e6" stop-opacity="0.19"/><stop offset="0.54" stop-color="#eb62ea" stop-opacity="0.33"/><stop offset="0.71" stop-color="#f16eef" stop-opacity="0.51"/><stop offset="0.88" stop-color="#f97cf5" stop-opacity="0.73"/><stop offset="1" stop-color="#ff87f9" stop-opacity="0.9"/></linearGradient><linearGradient id="Degradado_sin_nombre_75-2" x1="2647.33" y1="748.47" x2="2647.33" y2="549.21" gradientTransform="matrix(1, 0, 0, -1, -2280.27, 1297.67)" xlink:href="#Degradado_sin_nombre_75"/><linearGradient id="Degradado_sin_nombre_75-3" x1="2710.89" y1="685.85" x2="2710.89" y2="614.84" gradientTransform="matrix(1, 0, 0, -1, -2407.38, 1300.69)" xlink:href="#Degradado_sin_nombre_75"/><linearGradient id="Degradado_sin_nombre_75-4" x1="2733.4" y1="707.22" x2="2733.4" y2="636.22" gradientTransform="matrix(1, 0, 0, -1, -2452.39, 1343.44)" xlink:href="#Degradado_sin_nombre_75"/><linearGradient id="Degradado_sin_nombre_75-5" x1="2802.62" y1="581.22" x2="2802.62" y2="510.21" gradientTransform="matrix(1, 0, 0, -1, -2590.84, 1091.42)" xlink:href="#Degradado_sin_nombre_75"/><linearGradient id="Degradado_sin_nombre_75-6" x1="2854.38" y1="703.27" x2="2854.38" y2="632.26" gradientTransform="matrix(1, 0, 0, -1, -2694.35, 1335.53)" xlink:href="#Degradado_sin_nombre_75"/><linearGradient id="Degradado_sin_nombre_75-7" x1="2329.84" y1="805.82" x2="2329.84" y2="734.82" gradientTransform="matrix(1, 0, 0, -1, -1645.27, 1540.64)" xlink:href="#Degradado_sin_nombre_75"/><linearGradient id="Degradado_sin_nombre_75-8" x1="2468.55" y1="880.89" x2="2468.55" y2="809.88" gradientTransform="matrix(1, 0, 0, -1, -1922.69, 1690.77)" xlink:href="#Degradado_sin_nombre_75"/><linearGradient id="Degradado_sin_nombre_75-9" x1="2411.84" y1="783.97" x2="2411.84" y2="712.97" gradientTransform="matrix(1, 0, 0, -1, -1809.28, 1496.94)" xlink:href="#Degradado_sin_nombre_75"/><linearGradient id="Degradado_sin_nombre_75-10" x1="2421.97" y1="814.13" x2="2421.97" y2="743.12" gradientTransform="matrix(1, 0, 0, -1, -1829.55, 1557.25)" xlink:href="#Degradado_sin_nombre_75"/><linearGradient id="Degradado_sin_nombre_75-11" x1="2382.44" y1="844.4" x2="2382.44" y2="814.13" gradientTransform="matrix(1, 0, 0, -1, -1750.48, 1658.53)" xlink:href="#Degradado_sin_nombre_75"/><linearGradient id="Degradado_sin_nombre_75-12" x1="2343.77" y1="650.5" x2="2343.77" y2="620.23" gradientTransform="matrix(1, 0, 0, -1, -1673.14, 1270.73)" xlink:href="#Degradado_sin_nombre_75"/><linearGradient id="Degradado_sin_nombre_75-13" x1="2352.69" y1="680.16" x2="2352.69" y2="649.88" gradientTransform="matrix(1, 0, 0, -1, -1690.98, 1330.04)" xlink:href="#Degradado_sin_nombre_75"/><linearGradient id="Degradado_sin_nombre_75-14" x1="2843.19" y1="720.27" x2="2843.19" y2="677.02" gradientTransform="matrix(1, 0, 0, -1, -2671.97, 1397.29)" xlink:href="#Degradado_sin_nombre_75"/><linearGradient id="Degradado_sin_nombre_138-2" x1="-1117.93" y1="718.77" x2="-965.62" y2="718.77" gradientTransform="translate(1397.36)" xlink:href="#Degradado_sin_nombre_138"/><linearGradient id="Degradado_sin_nombre_5-6" x1="-1069.63" y1="793" x2="-972.77" y2="793" gradientTransform="translate(1397.36)" xlink:href="#Degradado_sin_nombre_5"/><linearGradient id="Degradado_sin_nombre_5-7" x1="-1073.66" y1="698.66" x2="-972.77" y2="698.66" gradientTransform="translate(1397.36)" xlink:href="#Degradado_sin_nombre_5"/><linearGradient id="Degradado_sin_nombre_5-8" x1="-1073.66" y1="746.36" x2="-972.77" y2="746.36" gradientTransform="translate(1397.36)" xlink:href="#Degradado_sin_nombre_5"/><linearGradient id="Degradado_sin_nombre_5-9" x1="-1073.66" y1="716.82" x2="-972.77" y2="716.82" gradientTransform="translate(1397.36)" xlink:href="#Degradado_sin_nombre_5"/></defs><g class="cls-1"><g id="Layer_2" data-name="Layer 2"><rect class="cls-2" width="1920" height="1080" rx="3.33"/></g><g id="Layer_1" data-name="Layer 1"><path class="cls-3" d="M499.4,943.55c-.61-.27-1.21-.54-1.82-.83L77.48,696,329,548.43a47.78,47.78,0,0,1,6.09,3L749.87,795c.38.22.7.46,1.07.69Z"/><path class="cls-4" d="M503.21,952.39c-.63-.29-1.27-.56-6,1.92L58.28,696.6l267-157a50.78,50.78,0,0,1,6.37,3.1L764.88,797.13c.4.24.74.49,1.12.73Z"/><path class="cls-5" d="M502.36,930.49c-.58-.26-1.16-.51-1.73-.79L100.54,694.77,327.18,561.49a47.24,47.24,0,0,1,5.8,2.83L728,796.26c.36.21.67.44,1,.66Z"/><path class="cls-6" d="M133.42,551.25c-.59,5.46,2,10.61,7.25,13.73L485.51,767.35c.58.33,1.17.63,1.76.94l.7.41a45.28,45.28,0,0,0,5.15,2.41c15.22,6.42,37.48,6.56,50.81-1.28L688.17,685c.89-.52,1.72-1.07,2.51-1.63.32-.23.61-.48.92-.72s.85-.66,1.24-1,.7-.67,1-1,.54-.52.78-.78c.38-.41.71-.82,1-1.24.15-.19.32-.39.47-.59.34-.48.65-1,.94-1.44.08-.15.17-.29.25-.43a17.22,17.22,0,0,0,.79-1.62l.1-.27a15,15,0,0,0,.59-1.79.52.52,0,0,0,0-.11,14.32,14.32,0,0,0,.34-1.92h0l.11,0v6.7c0,5.76-3.71,11.51-11.14,15.88L543.93,777.85c-14.84,8.74-39.14,8.75-54,0L145.1,575.51c-7.59-4.45-11.77-10.2-11.77-17.22v-7.17Z"/><path class="cls-7" d="M688.16,653.23c14.86,8.72,14.86,23,0,31.74L543.93,769.83c-14.84,8.73-39.14,8.75-58.42-2.48L140.67,565c-10.42-6.21-10.42-20.48,4.43-29.2l144.52-84.87c14.85-8.73,39.15-8.73,54,0Z"/><path class="cls-7" d="M688.16,653.23c14.86,8.72,14.86,23,0,31.74L543.93,769.83c-14.84,8.73-39.14,8.75-58.42-2.48L140.67,565c-10.42-6.21-10.42-20.48,4.43-29.2l144.52-84.87c14.85-8.73,39.15-8.73,54,0Z"/><path class="cls-8" d="M134.51,547c-2.4,6.7.05,13.48,6.41,17.26L485.76,766.66c19.28,11.23,43.58,11.22,58.42,2.48l144.24-84.86c5.36-3.15,8.75-7,10.24-11.1-1.34,4.32-4.83,8.46-10.49,11.79L543.93,769.83c-14.84,8.73-39.14,8.75-58.42-2.48L140.67,565C134.1,561.07,131.68,554,134.51,547Z"/><path class="cls-9" d="M491.37,770.32c-.5-.23-1-.45-1.51-.69l-349-204.93,30.22-17.78,7.8,4.57a26.74,26.74,0,0,0,27.11,0l120.26-70.88a6.36,6.36,0,0,0,0-11l-11.87-7,24.19-14.22a39.56,39.56,0,0,1,5.06,2.47L688.16,653.23c.32.18.59.39.89.58Z"/><path class="cls-10" d="M254.28,612l-.49-.22L193.65,576,257,538.77a15,15,0,0,1,1.61.79l58.72,34.92.28.18Z"/><path class="cls-11" d="M332.25,562.45l-.49-.22-60.14-35.75,63.3-37.22a14.29,14.29,0,0,1,1.62.79L395.25,525l.28.18Z"/><path class="cls-12" d="M332.68,634.22l-.33-.15L291.52,609.8l43-25.26a8.57,8.57,0,0,1,1.1.53l39.85,23.7.2.13Z"/><path class="cls-13" d="M441.37,628.52l-.22-.1-27.21-16.17,28.63-16.84a5.64,5.64,0,0,1,.74.36l26.56,15.79.13.09Z"/><path class="cls-14" d="M515.37,604.74H504.88l.19-8.53h10.48a11.75,11.75,0,0,1,1.17-1.56l-7.33-4.29,10.58-6,7.33,4.28c.89-.25,1.8-.47,2.73-.65l.13-6.05h14.78L544.8,588c.92.18,1.83.4,2.71.65l7.51-4.28,10.31,6-7.51,4.28a10.84,10.84,0,0,1,1.09,1.57H569.4l-.19,8.53H558.73a12.59,12.59,0,0,1-1.16,1.56l7.32,4.29-10.58,6L547,612.35c-.89.25-1.8.47-2.73.65l-.13,6H529.34l.14-6.06c-.92-.18-1.82-.4-2.71-.65l-7.51,4.28-10.31-6,7.51-4.28A10.84,10.84,0,0,1,515.37,604.74Zm12,1.33c5.29,3.1,14,3.1,19.4,0s5.53-8.11.24-11.2-14-3.1-19.4,0S522,603,527.32,606.07Z"/><path class="cls-15" d="M489.6,643.58h-6.15l.11-5h6.15a7,7,0,0,1,.68-.92l-4.29-2.51,6.2-3.53,4.29,2.51a16.23,16.23,0,0,1,1.6-.38l.08-3.55h8.66l-.08,3.55c.54.11,1.07.23,1.58.38l4.4-2.51,6,3.54-4.4,2.51a6.91,6.91,0,0,1,.64.92h6.14l-.11,5H515a7,7,0,0,1-.68.92l4.29,2.51-6.2,3.53L508.13,648c-.53.15-1.06.28-1.61.38l-.07,3.55h-8.66l.08-3.55c-.54-.11-1.07-.23-1.59-.38l-4.4,2.51-6-3.54,4.4-2.51A5.44,5.44,0,0,1,489.6,643.58Zm7,.79a12.58,12.58,0,0,0,11.37,0c3.18-1.81,3.24-4.75.14-6.57a12.56,12.56,0,0,0-11.36,0C493.57,639.61,493.5,642.55,496.6,644.37Z"/><path class="cls-16" d="M547.26,657.62h-17.9l.32-14.56h17.9a19.24,19.24,0,0,1,2-2.68l-12.5-7.31,18.06-10.29,12.5,7.31c1.52-.43,3.07-.8,4.66-1.11l.22-10.34h25.22L597.49,629c1.57.31,3.11.69,4.61,1.12l12.82-7.31,17.6,10.3-12.81,7.31a18.11,18.11,0,0,1,1.86,2.67h17.9l-.32,14.56h-17.9a19.16,19.16,0,0,1-2,2.67l12.5,7.31-18.06,10.3-12.5-7.31c-1.52.42-3.07.8-4.66,1.11l-.22,10.33H571.11l.23-10.34c-1.57-.31-3.11-.68-4.61-1.11l-12.82,7.3L536.3,667.61l12.82-7.31A18.19,18.19,0,0,1,547.26,657.62Zm20.39,2.28c9,5.28,23.85,5.29,33.11,0s9.44-13.84.42-19.12-23.85-5.28-33.11,0S558.63,654.62,567.65,659.9Z"/><path class="cls-17" d="M246.73,497.39c0,2.71-4.41,4.9-9.85,4.9s-9.85-2.19-9.85-4.9,4.41-4.89,9.85-4.89S246.73,494.69,246.73,497.39Z"/><path class="cls-18" d="M236.64,502.2c5.44,0,9.85-2.2,9.85-4.9,0-1.64-1.65-3.09-4.16-4,2.65.88,4.4,2.37,4.4,4.07,0,2.71-4.41,4.9-9.85,4.9a17.27,17.27,0,0,1-5.69-.91A17.44,17.44,0,0,0,236.64,502.2Z"/><path class="cls-19" d="M245.83,497.32c0,2.28-4,4.14-9,4.14s-8.95-1.86-8.95-4.14,4-4.15,8.95-4.15S245.83,495,245.83,497.32Z"/><path class="cls-20" d="M243.55,497.32c0,1.7-3,3.09-6.67,3.09s-6.67-1.39-6.67-3.09,3-3.09,6.67-3.09S243.55,495.62,243.55,497.32Z"/><path class="cls-21" d="M242.13,497.32c0,1.34-2.35,2.43-5.25,2.43s-5.25-1.09-5.25-2.43,2.35-2.43,5.25-2.43S242.13,496,242.13,497.32Z"/><path class="cls-22" d="M239.37,497.32c0,.64-1.11,1.15-2.49,1.15s-2.49-.51-2.49-1.15,1.12-1.15,2.49-1.15S239.37,496.68,239.37,497.32Z"/><path class="cls-23" d="M243.21,495.75c0,.87-1.52,1.57-3.39,1.57s-3.38-.7-3.38-1.57,1.51-1.56,3.38-1.56S243.21,494.89,243.21,495.75Z"/><path class="cls-23" d="M236,497.32c0,.33-.59.6-1.31.6s-1.3-.27-1.3-.6.58-.6,1.3-.6S236,497,236,497.32Z"/><path class="cls-24" d="M469.63,745.23l-9.36-5.41v-10.1l9.36,5.41Zm0-117.44v10.09l-9.36-5.41V622.38Zm0,75.73-9.36-5.41V688l9.36,5.41Zm0-20.85-9.36-5.41V667.17l9.36,5.41Zm0-20.85-9.36-5.41V646.32l9.36,5.41Zm9.59-4.55,9.36,5.41v10.09l-9.36-5.41Zm9.36,88.81v10.1l-9.36-5.41v-10.1Zm-9.36-68,9.36,5.41v10.09l-9.36-5.41Zm0-44.79,9.36,5.41v10.1l-9.36-5.41Zm0,65.64,9.36,5.41v10.1l-9.36-5.41Zm0,20.85,9.36,5.41v10.1l-9.36-5.41Zm-9.59,4.55L460.27,719V708.87l9.36,5.41Zm-37.89-42.75-9.36-5.41v-10.1l9.36,5.41Zm0,41.7-9.36-5.41V707.82l9.36,5.41Zm0-20.85-9.36-5.41V687l9.36,5.41Zm0-41.7-9.36-5.41v-10.1l9.36,5.41Zm0-54.88V616l-9.36-5.41V600.48Zm0,34-9.36-5.41v-10.1l9.36,5.41Zm18.95,52.65-9.36-5.41V677.07l9.36,5.41Zm0,20.85L441.33,708V697.92l9.36,5.41Zm0-86.49-9.36-5.41V611.43l9.36,5.41Zm18.94-21V616l-9.36-5.41V600.48Zm9.59,5.55,9.36,5.41v10.09l-9.36-5.41ZM431.74,584v10.09l-9.36-5.41V578.57Zm18.95,21-9.36-5.41v-10.1l9.36,5.41Zm18.94-21v10.09l-9.36-5.41V578.57Zm9.59,5.54,9.36,5.41V605l-9.36-5.41Zm-47.48-27.45v10.1l-9.36-5.41v-10.1Zm18.95,21-9.36-5.41V567.62l9.36,5.41Zm18.94-21v10.1l-9.36-5.41v-10.1Zm9.59,5.55,9.36,5.41v10.09l-9.36-5.41Zm-47.48-27.45v10.09l-9.36-5.41V534.76Zm18.95,21.05-9.36-5.41v-10.1l9.36,5.41Zm0,173-9.36-5.41V718.77l9.36,5.41Zm0-83.4-9.36-5.41v-10.1l9.36,5.41Zm0,20.85-9.36-5.41v-10.1l9.36,5.41Z"/><path class="cls-25" d="M231.42,518.15h0a8.8,8.8,0,0,0,8.78,0l39.33-22.52a2.93,2.93,0,0,0,0-5.08l-.72-.41a5.79,5.79,0,0,0-5.79,0L231.42,514A2.42,2.42,0,0,0,231.42,518.15Z"/><path class="cls-26" d="M252.05,205h0l0,0Z"/><path class="cls-27" d="M427.94,578c0-32.58-18.6-70-41.53-83.68-9.7-5.76-18.6-6.29-25.67-2.58l-.06,0L405,466.24a20.81,20.81,0,0,1,2-1.14l.74-.42,0,.05a19.84,19.84,0,0,1,4.15-1.31,175.79,175.79,0,0,1,33.72,52.36c5.25,12.5,14.85,19.78,21.46,16.27s7.71-16.51,2.47-29c-19-45.39-50.11-84.2-83.16-103.84-24-14.28-46.82-17.17-64.82-9.06l0,0,42.3-24.71h0c9.94-5.53,21.55-7.39,34.15-5.59,31.1,22.12,59.31,57.33,77,96.72,5.71,12.72,15.66,19.63,22.23,15.43s7.27-17.92,1.56-30.64C473.05,384,431.15,334.05,386.65,307.61,350,285.83,315.46,282.14,290,296.24l-.09,0,42.31-24.36.05,0c16-10.34,36.13-13,58.3-8.09C436.64,292.34,479.2,340.87,505,394.56c6,12.51,16,18.77,22.27,14s6.53-18.82.53-31.34C495.48,309.94,442.83,250,386.92,216.74c-46.37-27.56-90.08-34-122.12-19.21l37.58-22h0c32.55-20.33,79.92-15.31,130.46,14.72,55.9,33.22,108.56,93.21,140.85,160.47,6,12.51,5.77,26.54-.52,31.33a7.72,7.72,0,0,1-1.59.92l-33,19.07c2.11,4.23,4.16,8.48,6.1,12.79,5.7,12.72,5,26.44-1.57,30.64L510,464.5c1.89,3.95,3.72,7.94,5.43,12,5.24,12.5,4.13,25.49-2.48,29l-41.77,23.83a100.88,100.88,0,0,1,2.65,22.15c0,20.25-7.19,33.83-18.13,38l-41.8,24.34C422.51,608.08,427.94,595.58,427.94,578Z"/><path class="cls-28" d="M243.37,212.36c32.08-31.61,85.75-30,143.55,4.38C442.83,250,495.48,309.94,527.78,377.2c6,12.52,5.77,26.55-.53,31.34s-16.26-1.47-22.27-14c-26.46-55.12-70.6-104.86-118.06-133.06-49-29.12-93.92-31.1-120.13-5.29-3.11,3.07-7.4,3-11.72.45-3.75-2.23-7.52-6.36-10.53-12C238.07,232.55,237.55,218.09,243.37,212.36Zm143,186.84c33.05,19.64,64.13,58.45,83.16,103.84,5.24,12.5,4.14,25.49-2.47,29s-16.21-3.77-21.46-16.27c-13.28-31.68-35.42-59-59.23-73.19-24.58-14.6-47.11-13.07-60.27,4.12-3,3.91-7.59,4.19-12.24,1.43a28.17,28.17,0,0,1-9.14-9.75c-6.75-11.19-8.13-25.61-3.08-32.2C320.55,381.52,352.22,378.91,386.38,399.2Zm0,95.14c22.93,13.63,41.53,51.1,41.53,83.68s-18.6,48-41.53,34.33-41.54-51.1-41.54-83.68S363.47,480.71,386.41,494.34Zm.24-186.73c44.5,26.44,86.4,76.42,112.09,133.71,5.71,12.72,5,26.44-1.56,30.64s-16.52-2.71-22.23-15.43c-19.79-44.12-52.8-83.06-88.3-104.16-36.66-21.78-70.25-21.44-89.85.92-3.12,3.55-7.64,3.67-12.2,1-3.51-2.09-7-5.85-10-11-6.73-11.83-7.72-26.52-2.21-32.81C297.94,281.33,340.64,280.27,386.65,307.61Z"/><polygon class="cls-29" points="502.36 930.49 502.36 329.1 100.54 121.22 100.54 694.42 502.36 930.49"/><polygon class="cls-30" points="502.36 930.49 728.98 796.92 728.98 263.69 502.36 329.1 502.36 930.49"/><rect class="cls-31" x="386.37" y="654.07" width="4.13" height="199.26" rx="0.6" transform="translate(776.87 1507.4) rotate(180)"/><rect class="cls-32" x="365.01" y="549.21" width="4.13" height="199.26" rx="0.6" transform="translate(734.14 1297.67) rotate(180)"/><rect class="cls-33" x="301.45" y="614.84" width="4.13" height="71.01" rx="0.6" transform="translate(607.02 1300.69) rotate(180)"/><rect class="cls-34" x="278.94" y="636.22" width="4.13" height="71.01" rx="0.6" transform="translate(562.01 1343.44) rotate(180)"/><rect class="cls-35" x="209.72" y="510.21" width="4.13" height="71.01" rx="0.6" transform="translate(423.56 1091.42) rotate(180)"/><rect class="cls-36" x="157.96" y="632.26" width="4.13" height="71.01" rx="0.6" transform="translate(320.05 1335.53) rotate(180)"/><rect class="cls-37" x="682.5" y="734.82" width="4.13" height="71.01" rx="0.6" transform="translate(1369.13 1540.64) rotate(180)"/><rect class="cls-38" x="543.79" y="809.88" width="4.13" height="71.01" rx="0.6" transform="translate(1091.71 1690.77) rotate(180)"/><rect class="cls-39" x="600.5" y="712.97" width="4.13" height="71.01" rx="0.6" transform="translate(1205.13 1496.94) rotate(180)"/><rect class="cls-40" x="590.37" y="743.12" width="4.13" height="71.01" rx="0.6" transform="translate(1184.86 1557.25) rotate(180)"/><rect class="cls-41" x="629.9" y="814.13" width="4.13" height="30.28" rx="0.6" transform="translate(1263.92 1658.53) rotate(180)"/><rect class="cls-42" x="668.57" y="620.23" width="4.13" height="30.28" rx="0.6" transform="translate(1341.27 1270.73) rotate(180)"/><rect class="cls-43" x="659.65" y="649.88" width="4.13" height="30.28" rx="0.6" transform="translate(1323.42 1330.04) rotate(180)"/><rect class="cls-44" x="169.15" y="677.02" width="4.13" height="43.26" rx="0.6" transform="translate(342.43 1397.29) rotate(180)"/><polygon class="cls-45" points="279.44 750.6 431.74 840.17 431.74 686.94 279.44 597.37 279.44 750.6"/><polygon class="cls-46" points="283.41 634.57 424.6 714.72 424.6 696.99 283.41 616.85 283.41 634.57"/><polygon class="cls-47" points="327.73 767.97 424.6 823.4 424.6 818.03 327.73 762.61 327.73 767.97"/><polygon class="cls-48" points="323.7 672.59 424.6 730.33 424.6 724.74 323.7 667 323.7 672.59"/><polygon class="cls-49" points="323.7 718.42 424.6 776.15 424.6 774.31 323.7 716.58 323.7 718.42"/><polygon class="cls-46" points="392.79 765.91 424.6 784.32 424.6 782.48 392.79 764.07 392.79 765.91"/><polygon class="cls-46" points="392.79 772.37 424.6 790.78 424.6 788.94 392.79 770.53 392.79 772.37"/><polygon class="cls-46" points="392.79 778.83 424.6 797.24 424.6 795.4 392.79 776.99 392.79 778.83"/><polygon class="cls-46" points="392.79 785.29 424.6 803.7 424.6 801.86 392.79 783.45 392.79 785.29"/><polygon class="cls-46" points="392.79 791.74 424.6 810.15 424.6 808.31 392.79 789.9 392.79 791.74"/><polygon class="cls-46" points="344.78 738.2 376.59 756.61 376.59 754.77 344.78 736.36 344.78 738.2"/><polygon class="cls-46" points="344.78 744.66 376.59 763.07 376.59 761.23 344.78 742.82 344.78 744.66"/><polygon class="cls-46" points="344.78 751.12 376.59 769.53 376.59 767.69 344.78 749.28 344.78 751.12"/><polygon class="cls-46" points="344.78 764.03 376.59 782.44 376.59 780.6 344.78 762.19 344.78 764.03"/><polygon class="cls-46" points="320.52 725.89 333.58 733.57 333.58 731.73 320.52 724.05 320.52 725.89"/><polygon class="cls-46" points="320.52 745.27 333.58 752.95 333.58 751.11 320.52 743.43 320.52 745.27"/><polygon class="cls-46" points="320.52 751.72 333.58 759.4 333.58 757.56 320.52 749.88 320.52 751.72"/><polygon class="cls-50" points="323.7 690.75 424.6 748.48 424.6 742.89 323.7 685.15 323.7 690.75"/><polygon class="cls-46" points="293.11 692.44 424.6 767.68 424.6 760.4 293.11 685.15 293.11 692.44"/><g class="cls-51"><polygon class="cls-52" points="282.84 605.43 381.21 663.03 431.74 805.72 431.74 840.17 355.75 795.68 282.84 605.43"/></g></g></g></svg>